# xmcd CD database file
#
# Track frame offsets:
#	150
#	20152
#	47217
#	69542
#	93850
#	114165
#	129800
#	153152
#	176342
#	197017
#
# Disc length: 3255 seconds
#
# Revision: 0
# Processed by: cddbd v1.4PL0 Copyright (c) Steve Scherf et al.
# Submitted via: CDex 1.50Beta3
#
DISCID=760cb50a
DTITLE=The Blues Corporation - 300 Pounds of Joy
DYEAR=1999
DGENRE=Blues
TTITLE0=Keep a Lookout for the Blues
TTITLE1=The Chant
TTITLE2=300 Pounds of Joy
TTITLE3=Resting in the Blues
TTITLE4=In Spite of it All
TTITLE5=Driving Home to You
TTITLE6=Your'e the One I Want
TTITLE7=The Cheating Things You Do
TTITLE8=Mr Blues
TTITLE9=Song for Mary (again)
EXTD=YEAR: 1999
EXTT0=
EXTT1=
EXTT2=
EXTT3=
EXTT4=
EXTT5=
EXTT6=
EXTT7=
EXTT8=
EXTT9=
PLAYORDER=
